# xmcd
#
# Track frame offsets:
#	150
#	16737
#	33862
#	51625
#	67487
#	84712
#	101375
#	121612
#	138837
#	154750
#
# Disc length: 2295
#
# Revision: 1
# Processed by: cddbd v1.5.1PL0 Copyright (c) Steve Scherf et al.
# Submitted via: dBpowerAMP V4.0
# Normalized: r0:TRMNUM
#
DISCID=7e08f50a
DTITLE=โป้ง - ต. กับ จ.
DYEAR=1900
DGENRE=Pop
TTITLE0=ต. กับ จ.
TTITLE1=โป้งแปะ
TTITLE2=รักคืออะไร
TTITLE3=ไอ๊โยะ
TTITLE4=ฝันธง
TTITLE5=เผ่น
TTITLE6=ตัดไม่ขาด
TTITLE7=ไม่ยอมเสียเธอ
TTITLE8=โทนกับทน
TTITLE9=เพื่อน
EXTD=
EXTT0=
EXTT1=
EXTT2=
EXTT3=
EXTT4=
EXTT5=
EXTT6=
EXTT7=
EXTT8=
EXTT9=
PLAYORDER=
